# xmcd
#
# Track frame offsets:
#	150
#	12050
#	31032
#	44242
#	58125
#	70755
#	83805
#	96887
#	108510
#	123540
#	134842
#	149060
#	162782
#	175457
#	194427
#	209310
#	221990
#	232937
#	246180
#	255180
#	270587
#
# Disc length: 3747 seconds
#
# Revision: 2
# Processed by: cddbd v1.5.1PL2 Copyright (c) Steve Scherf et al.
# Submitted via: audiograbber 1.82.02
#
DISCID=3d0ea115
DTITLE=Tammy Wynette - La legend Country
DYEAR=1900
DGENRE=
TTITLE0=Stand by your man
TTITLE1=Ode to Billy Joe
TTITLE2=Easy come, easy go
TTITLE3=Crying in the rain
TTITLE4=I'd like to see Jesus
TTITLE5=Cowboys don't shoot straight
TTITLE6=D.I.V.O.R.C.E.
TTITLE7=Another lonely song
TTITLE8=You needed me
TTITLE9=Cheatin'is
TTITLE10=Unwed fathers
TTITLE11=Your love
TTITLE12=My man understand
TTITLE13=Bedtime story
TTITLE14=You and me
TTITLE15=Womanhood
TTITLE16=Let's get together
TTITLE17=Woman to woman
TTITLE18=Your good girl's gonna go bad
TTITLE19=There's no heart so strong
TTITLE20=I still believe in fairy tales
EXTD=tammy winette\n
EXTT0=
EXTT1=
EXTT2=
EXTT3=
EXTT4=
EXTT5=
EXTT6=
EXTT7=
EXTT8=
EXTT9=
EXTT10=
EXTT11=
EXTT12=
EXTT13=
EXTT14=
EXTT15=
EXTT16=
EXTT17=
EXTT18=
EXTT19=
EXTT20=
PLAYORDER=
